<svg width="512" height="512" xmlns="http://www.w3.org/2000/svg">
  <!-- Green gradient background -->
  <defs>
    <linearGradient id="grad" x1="0%" y1="0%" x2="100%" y2="100%">
      <stop offset="0%" style="stop-color:#10b981;stop-opacity:1" />
      <stop offset="100%" style="stop-color:#059669;stop-opacity:1" />
    </linearGradient>
  </defs>
  
  <!-- Background circle -->
  <circle cx="256" cy="256" r="256" fill="url(#grad)"/>
  
  <!-- White leaf icon -->
  <g transform="translate(256, 256)">
    <!-- Main leaf -->
    <path d="M 0,-120 Q 60,-100 80,-40 Q 90,0 80,40 Q 60,100 0,120 Q -20,80 -30,40 Q -35,0 -30,-40 Q -20,-80 0,-120 Z" 
          fill="white" opacity="0.95"/>
    
    <!-- Leaf veins -->
    <line x1="0" y1="-120" x2="0" y2="120" stroke="rgba(16, 185, 129, 0.3)" stroke-width="4"/>
    <line x1="0" y1="-60" x2="40" y2="-40" stroke="rgba(16, 185, 129, 0.3)" stroke-width="2"/>
    <line x1="0" y1="0" x2="50" y2="10" stroke="rgba(16, 185, 129, 0.3)" stroke-width="2"/>
    <line x1="0" y1="60" x2="40" y2="70" stroke="rgba(16, 185, 129, 0.3)" stroke-width="2"/>
    
    <!-- Small decorative leaves -->
    <circle cx="-80" cy="-60" r="20" fill="rgba(255, 255, 255, 0.7)"/>
    <circle cx="-90" cy="60" r="20" fill="rgba(255, 255, 255, 0.7)"/>
  </g>
  
  <!-- Text "TPS" at bottom -->
  <text x="256" y="420" font-family="Arial, sans-serif" font-size="64" font-weight="bold" 
        fill="white" text-anchor="middle">TPS</text>
</svg>
